<?xml version="1.0" encoding="UTF-8" standalone="no"?>
<!DOCTYPE svg PUBLIC "-//W3C//DTD SVG 1.1//EN" "http://www.w3.org/Graphics/SVG/1.1/DTD/svg11.dtd">
<svg width="100%" height="100%" viewBox="0 0 4000 1254" version="1.1" xmlns="http://www.w3.org/2000/svg" xmlns:xlink="http://www.w3.org/1999/xlink" xml:space="preserve" xmlns:serif="http://www.serif.com/" style="fill-rule:evenodd;clip-rule:evenodd;stroke-linejoin:round;stroke-miterlimit:2;">
    <g transform="matrix(0.731611,0,0,0.731611,353.771,98.1928)">
        <g id="name" style="fill:currentColor;">
            <g>
                <path d="M1373.66,974.594C1359.09,974.594 1346.42,969.209 1335.65,958.441C1324.88,947.672 1319.5,935.003 1319.5,920.434L1319.5,335.127C1319.5,320.558 1324.88,307.889 1335.65,297.12C1346.42,286.352 1359.09,280.967 1373.66,280.967L1379.36,280.967C1393.93,280.967 1406.6,286.352 1417.36,297.12C1428.13,307.889 1433.52,320.558 1433.52,335.127L1433.52,920.434C1433.52,935.003 1428.13,947.672 1417.36,958.441C1406.6,969.209 1393.93,974.594 1379.36,974.594L1373.66,974.594Z" style="fill-rule:nonzero;"/>
                <path d="M1689.11,960.341C1679.61,969.843 1667.89,974.594 1653.96,974.594C1640.02,974.594 1628.14,969.843 1618.33,960.341C1608.51,950.839 1603.6,939.121 1603.6,925.185L1603.6,527.062C1603.6,514.393 1608.19,503.466 1617.38,494.281C1626.56,485.096 1637.49,480.504 1650.16,480.504C1662.83,480.504 1673.75,485.096 1682.94,494.281C1692.12,503.466 1697.03,514.393 1697.67,527.062L1698.62,541.315C1698.62,541.948 1698.93,542.265 1699.57,542.265C1700.2,542.265 1700.83,541.948 1701.47,541.315C1746.44,494.44 1797.75,471.002 1855.39,471.002C1913.04,471.002 1955.16,487.313 1981.77,519.936C2008.37,552.559 2021.67,605.927 2021.67,680.04L2021.67,926.135C2021.67,939.437 2016.92,950.839 2007.42,960.341C1997.92,969.843 1986.52,974.594 1973.22,974.594C1959.91,974.594 1948.35,969.843 1938.53,960.341C1928.72,950.839 1923.81,939.437 1923.81,926.135L1923.81,694.293C1923.81,637.282 1916.84,598.484 1902.9,577.896C1888.97,557.309 1863.63,547.016 1826.89,547.016C1797.12,547.016 1769.09,560.16 1742.8,586.448C1716.51,612.736 1703.37,640.766 1703.37,670.538L1703.37,925.185C1703.37,939.121 1698.62,950.839 1689.11,960.341Z" style="fill-rule:nonzero;"/>
                <path d="M2243.07,960.341C2233.56,969.843 2221.84,974.594 2207.91,974.594C2193.97,974.594 2182.25,969.843 2172.75,960.341C2163.25,950.839 2158.5,939.121 2158.5,925.185L2158.5,311.373C2158.5,297.437 2163.25,285.718 2172.75,276.216C2182.25,266.715 2193.97,261.964 2207.91,261.964C2221.84,261.964 2233.72,266.715 2243.54,276.216C2253.36,285.718 2258.27,297.437 2258.27,311.373L2258.27,698.093C2258.27,698.727 2258.58,699.044 2259.22,699.044L2261.12,698.093L2430.25,519.461C2454.95,493.489 2485.36,480.504 2521.47,480.504L2531.92,480.504C2542.05,480.504 2549.18,485.255 2553.3,494.756C2557.41,504.258 2555.99,512.493 2549.02,519.461L2363.74,712.346C2360.57,715.513 2360.57,719.314 2363.74,723.748L2549.97,934.686C2556.94,942.288 2558.36,950.839 2554.25,960.341C2550.13,969.843 2542.69,974.594 2531.92,974.594L2521.47,974.594C2485.99,974.594 2456.22,960.975 2432.15,933.736L2261.12,738.001C2260.49,737.367 2259.85,737.05 2259.22,737.05C2258.58,737.05 2258.27,737.367 2258.27,738.001L2258.27,925.185C2258.27,939.121 2253.2,950.839 2243.07,960.341Z" style="fill-rule:nonzero;"/>
                <path d="M2821.72,547.016C2739.37,547.016 2698.2,607.193 2698.2,727.549C2698.2,788.36 2709.12,833.651 2730.98,863.423C2752.83,893.196 2783.08,908.082 2821.72,908.082C2855.29,908.082 2884.27,896.996 2908.66,874.826C2933.05,852.655 2945.24,827.317 2945.24,798.812L2945.24,656.286C2945.24,627.781 2933.05,602.443 2908.66,580.272C2884.27,558.101 2855.29,547.016 2821.72,547.016ZM2797.97,984.095C2740.32,984.095 2692.66,960.975 2654.97,914.733C2617.28,868.491 2598.43,806.096 2598.43,727.549C2598.43,646.467 2616.64,583.439 2653.07,538.464C2689.49,493.489 2737.79,471.002 2797.97,471.002C2854.34,471.002 2902.49,491.272 2942.39,531.813C2943.03,532.447 2943.66,532.763 2944.29,532.763C2944.93,532.763 2945.24,532.447 2945.24,531.813L2945.24,311.373C2945.24,297.437 2950.15,285.718 2959.97,276.216C2969.79,266.715 2981.67,261.964 2995.6,261.964C3009.54,261.964 3021.26,266.715 3030.76,276.216C3040.26,285.718 3045.01,297.437 3045.01,311.373L3045.01,928.035C3045.01,940.704 3040.42,951.631 3031.23,960.816C3022.05,970.001 3011.12,974.594 2998.45,974.594C2985.78,974.594 2974.86,970.001 2965.67,960.816C2956.49,951.631 2951.58,940.704 2950.94,928.035L2949.99,913.783C2949.99,913.149 2949.68,912.833 2949.04,912.833C2948.41,912.833 2947.78,913.149 2947.14,913.783C2923.71,939.754 2900.59,957.966 2877.78,968.418C2854.98,978.87 2828.37,984.095 2797.97,984.095Z" style="fill-rule:nonzero;"/>
                <path d="M3275.9,959.391C3265.77,969.526 3253.42,974.594 3238.85,974.594C3224.28,974.594 3211.93,969.526 3201.79,959.391C3191.65,949.256 3186.59,936.904 3186.59,922.334L3186.59,529.913C3186.59,515.977 3191.34,504.258 3200.84,494.756C3210.34,485.255 3222.06,480.504 3236,480.504C3249.93,480.504 3261.81,485.255 3271.63,494.756C3281.45,504.258 3286.36,515.977 3286.36,529.913L3286.36,574.571C3286.36,575.204 3286.67,575.521 3287.31,575.521C3288.57,575.521 3289.21,575.204 3289.21,574.571C3308.21,548.599 3333.55,527.221 3365.22,510.434C3396.89,493.648 3431.41,483.988 3468.79,481.454C3480.19,480.82 3489.85,484.304 3497.77,491.906C3505.69,499.507 3509.65,509.009 3509.65,520.411C3509.65,531.813 3505.69,541.473 3497.77,549.391C3489.85,557.309 3480.19,561.585 3468.79,562.219C3407.98,564.752 3363.16,580.43 3334.34,609.252C3305.52,638.074 3291.11,680.674 3291.11,737.05L3291.11,922.334C3291.11,936.904 3286.04,949.256 3275.9,959.391Z" style="fill-rule:nonzero;"/>
                <path d="M3939.12,727.549C3939.12,607.193 3895.42,547.016 3808,547.016C3720.58,547.016 3676.88,607.193 3676.88,727.549C3676.88,847.904 3720.58,908.082 3808,908.082C3895.42,908.082 3939.12,847.904 3939.12,727.549ZM3979.03,917.583C3937.86,961.925 3880.85,984.095 3808,984.095C3735.15,984.095 3678.14,961.766 3636.97,917.108C3595.8,872.45 3575.21,809.264 3575.21,727.549C3575.21,645.834 3595.8,582.647 3636.97,537.989C3678.14,493.331 3735.15,471.002 3808,471.002C3880.85,471.002 3937.86,493.331 3979.03,537.989C4020.2,582.647 4040.79,645.834 4040.79,727.549C4040.79,809.264 4020.2,872.609 3979.03,917.583Z" style="fill-rule:nonzero;"/>
                <path d="M4244.13,656.286L4244.13,798.812C4244.13,827.95 4256.32,853.447 4280.71,875.301C4305.1,897.155 4334.08,908.082 4367.65,908.082C4405.66,908.082 4435.75,892.879 4457.92,862.473C4480.09,832.068 4491.18,787.093 4491.18,727.549C4491.18,607.193 4450,547.016 4367.65,547.016C4334.08,547.016 4305.1,557.943 4280.71,579.797C4256.32,601.651 4244.13,627.147 4244.13,656.286ZM4228.93,1169.38C4219.43,1178.88 4207.71,1183.63 4193.77,1183.63C4179.84,1183.63 4168.12,1178.88 4158.61,1169.38C4149.11,1159.88 4144.36,1148.16 4144.36,1134.22L4144.36,527.062C4144.36,514.393 4148.95,503.466 4158.14,494.281C4167.32,485.096 4178.25,480.504 4190.92,480.504C4203.59,480.504 4214.67,485.096 4224.18,494.281C4233.68,503.466 4238.74,514.393 4239.38,527.062L4239.38,541.315C4239.38,541.948 4239.69,542.265 4240.33,542.265C4240.96,542.265 4241.6,541.948 4242.23,541.315C4265.67,515.343 4288.79,497.132 4311.59,486.68C4334.4,476.228 4361,471.002 4391.41,471.002C4451.58,471.002 4499.89,493.489 4536.31,538.464C4572.73,583.439 4590.94,646.467 4590.94,727.549C4590.94,806.096 4572.1,868.491 4534.41,914.733C4496.72,960.975 4449.05,984.095 4391.41,984.095C4335.03,984.095 4286.89,963.825 4246.98,923.284C4246.35,922.651 4245.71,922.334 4245.08,922.334C4244.45,922.334 4244.13,922.651 4244.13,923.284L4244.13,1134.22C4244.13,1148.16 4239.06,1159.88 4228.93,1169.38Z" style="fill-rule:nonzero;"/>
            </g>
        </g>
    </g>
    <path id="logo" d="M428.115,184.722C451.615,144.325 494.872,115.824 541.766,110.749C580.522,106.554 620.795,118.184 651.393,142.552C665.83,154.051 678.088,168.278 687.428,184.18C776.784,337.784 865.502,491.759 954.538,645.55C968.673,670.082 975.198,698.469 974.151,726.545C973.259,750.449 966.878,774.126 955.03,795.005C910.984,871.875 866.62,948.563 822.414,1025.34C796.102,1070.82 745.312,1100.17 693.049,1100.5C603.504,1100.68 513.958,1100.5 424.412,1100.5C372.057,1100.39 321.319,1071.15 294.913,1026.19C250.263,949.44 205.931,872.501 161.44,795.653C135.177,750.071 135.193,691.335 161.126,645.887C249.802,491.98 339.119,338.443 428.115,184.722ZM253.565,693.972C244.99,708.999 244.844,727.513 253.567,742.801C297.895,819.745 339.628,892.549 384.596,969.121C393.361,983.905 409.088,993.14 426.658,993.25C516.205,993.439 600.828,993.806 690.372,993.249C707.579,993.069 723.493,984.07 732.387,968.843C776.746,892.148 818.861,819.782 862.577,742.72C871.021,727.697 871.121,709.432 862.418,694.179C773.684,540.209 690.19,394.496 600.199,241.257C590.715,225.261 572.706,215.802 554.047,217.28C538.088,218.543 523.8,227.406 515.558,241.438C426.279,394.916 342.202,540.122 253.565,693.972ZM603.018,861.71C593.729,877.799 576.562,887.71 557.984,887.71C539.407,887.71 522.24,877.799 512.951,861.71C485.647,814.418 450.93,754.286 423.626,706.994C414.337,690.905 414.337,671.082 423.626,654.994C432.914,638.905 450.081,628.994 468.659,628.994L647.31,628.994C665.888,628.994 683.054,638.905 692.343,654.994C701.632,671.082 701.632,690.905 692.343,706.994C665.039,754.286 630.322,814.418 603.018,861.71Z" style="fill:white;fill-rule:nonzero;"/>
    <clipPath id="_clip1">
        <path id="logo1" serif:id="logo" d="M428.115,184.722C451.615,144.325 494.872,115.824 541.766,110.749C580.522,106.554 620.795,118.184 651.393,142.552C665.83,154.051 678.088,168.278 687.428,184.18C776.784,337.784 865.502,491.759 954.538,645.55C968.673,670.082 975.198,698.469 974.151,726.545C973.259,750.449 966.878,774.126 955.03,795.005C910.984,871.875 866.62,948.563 822.414,1025.34C796.102,1070.82 745.312,1100.17 693.049,1100.5C603.504,1100.68 513.958,1100.5 424.412,1100.5C372.057,1100.39 321.319,1071.15 294.913,1026.19C250.263,949.44 205.931,872.501 161.44,795.653C135.177,750.071 135.193,691.335 161.126,645.887C249.802,491.98 339.119,338.443 428.115,184.722ZM253.565,693.972C244.99,708.999 244.844,727.513 253.567,742.801C297.895,819.745 339.628,892.549 384.596,969.121C393.361,983.905 409.088,993.14 426.658,993.25C516.205,993.439 600.828,993.806 690.372,993.249C707.579,993.069 723.493,984.07 732.387,968.843C776.746,892.148 818.861,819.782 862.577,742.72C871.021,727.697 871.121,709.432 862.418,694.179C773.684,540.209 690.19,394.496 600.199,241.257C590.715,225.261 572.706,215.802 554.047,217.28C538.088,218.543 523.8,227.406 515.558,241.438C426.279,394.916 342.202,540.122 253.565,693.972ZM603.018,861.71C593.729,877.799 576.562,887.71 557.984,887.71C539.407,887.71 522.24,877.799 512.951,861.71C485.647,814.418 450.93,754.286 423.626,706.994C414.337,690.905 414.337,671.082 423.626,654.994C432.914,638.905 450.081,628.994 468.659,628.994L647.31,628.994C665.888,628.994 683.054,638.905 692.343,654.994C701.632,671.082 701.632,690.905 692.343,706.994C665.039,754.286 630.322,814.418 603.018,861.71Z" clip-rule="nonzero"/>
    </clipPath>
    <g clip-path="url(#_clip1)">
        <g transform="matrix(0.848248,0,0,0.848248,-66.3146,-162.747)">
            <g transform="matrix(7.71508e-17,1.25997,-1.25997,7.71508e-17,2023.21,100.443)">
                <rect x="106" y="397" width="1254" height="1254" style="fill:url(#_Linear2);"/>
            </g>
            <g transform="matrix(1,0,0,1,5.97271,2.27374e-13)">
                <path d="M1523,1814L-57,1814L-57,398L411.716,1133.45L504.184,972.003C504.184,972.003 608.643,1153.3 674.735,1268.01C685.664,1286.98 705.879,1298.68 727.771,1298.71C749.662,1298.74 769.908,1287.09 780.888,1268.15C847.197,1153.77 951.912,973.142 951.912,973.142L1043.62,1134L1523,398L1523,1814Z" style="fill:url(#_Linear3);"/>
            </g>
        </g>
    </g>
    <defs>
        <linearGradient id="_Linear2" x1="0" y1="0" x2="1" y2="0" gradientUnits="userSpaceOnUse" gradientTransform="matrix(1254,1.58844,-1.58844,1254,106,1024)"><stop offset="0" style="stop-color:rgb(112,162,215);stop-opacity:1"/><stop offset="0.31" style="stop-color:rgb(119,130,220);stop-opacity:1"/><stop offset="1" style="stop-color:rgb(126,98,225);stop-opacity:1"/></linearGradient>
        <linearGradient id="_Linear3" x1="0" y1="0" x2="1" y2="0" gradientUnits="userSpaceOnUse" gradientTransform="matrix(7.17688,-1053.74,1053.74,7.17688,895.823,1651)"><stop offset="0" style="stop-color:rgb(112,162,215);stop-opacity:1"/><stop offset="0.46" style="stop-color:rgb(123,112,223);stop-opacity:1"/><stop offset="1" style="stop-color:rgb(126,98,225);stop-opacity:1"/></linearGradient>
    </defs>
</svg>
